<!--?xml version="1.0" encoding="utf-8"?-->
<!-- Generator: Adobe Illustrator 18.1.1, SVG Export Plug-In . SVG Version: 6.00 Build 0)  -->

<svg version="1.1" id="_x32_" xmlns="http://www.w3.org/2000/svg" xmlns:xlink="http://www.w3.org/1999/xlink" x="0px" y="0px" viewBox="0 0 512 512" style="width: 256px; height: 256px; opacity: 1;" xml:space="preserve">
<g>
	<path class="st0" d="M378.003,307.842c-33.279-6.811-10.539-24.698,15.124-31.578c11.457-3.075,15.83-12.057,14.782-20.264
		c1.048-8.2-3.326-17.19-14.782-20.265c-25.663-6.879-48.403-24.767-15.124-31.578c33.286-6.81,67.179-23.286,52.404-48.843
		c-14.76-25.595-45.981-4.472-68.516,20.94c-22.528,25.42-26.65-3.204-19.778-28.882c3.067-11.45-2.528-19.733-10.152-22.937
		c-6.598-4.996-16.567-5.718-24.942,2.672c-18.792,18.8-45.654,29.536-34.904-2.688c10.736-32.215,13.416-69.829-16.111-69.829
		c-29.543,0-26.863,37.614-16.127,69.829c10.752,32.224-16.111,21.487-34.903,2.688c-8.375-8.39-18.344-7.668-24.942-2.672
		c-7.623,3.204-13.211,11.487-10.152,22.937c6.887,25.678,2.764,54.302-19.778,28.882c-22.535-25.412-53.748-46.535-68.516-20.94
		c-14.768,25.556,19.125,42.032,52.404,48.843c33.278,6.811,10.546,24.698-15.124,31.578c-11.457,3.075-15.83,12.065-14.783,20.265
		c-1.047,8.207,3.326,17.189,14.783,20.264c25.67,6.879,48.403,24.767,15.124,31.578c-33.279,6.81-67.172,23.286-52.404,48.858
		c14.768,25.579,45.98,4.456,68.516-20.948c22.542-25.428,26.666,3.196,19.778,28.874c-3.059,11.45,2.528,19.733,10.152,22.937
		c6.598,4.996,16.567,5.718,24.942-2.672c18.792-18.8,45.654-29.528,34.903,2.688c-10.736,32.231-13.416,69.829,16.127,69.829
		c29.527,0,26.847-37.598,16.111-69.829c-10.751-32.216,16.112-21.487,34.904-2.688c8.374,8.39,18.344,7.668,24.942,2.672
		c7.624-3.204,13.219-11.487,10.152-22.937c-6.871-25.678-2.749-54.302,19.778-28.874c22.535,25.404,53.756,46.527,68.516,20.948
		C445.182,331.129,411.288,314.653,378.003,307.842z M269.428,196.922c0-10.766,18.003-17.933,36.338-27.121
		c1.223,20.485,4.002,39.648-5.322,45.04c-8.83,5.095-22.3,12.878-31.016,17.911C269.428,222.692,269.428,207.126,269.428,196.922z
		 M206.227,169.801c18.359,9.188,36.346,16.355,36.346,27.121c0,10.205,0,25.77,0,35.83c-8.708-5.033-22.193-12.816-31.015-17.911
		C202.226,209.449,205.005,190.286,206.227,169.801z M156.457,256c17.13-11.298,32.345-23.294,41.668-17.904
		c8.838,5.095,22.308,12.87,31.016,17.904c-8.709,5.034-22.178,12.808-31.016,17.911C188.802,279.302,173.587,267.298,156.457,256z
		 M242.573,315.078c0,10.766-17.987,17.933-36.346,27.121c-1.222-20.477-4.001-39.648,5.33-45.04
		c8.822-5.095,22.307-12.878,31.015-17.911C242.573,289.308,242.573,304.874,242.573,315.078z M263.756,269.424h-7.752h-7.768
		l-3.872-6.704l-3.88-6.719l3.88-6.72l3.872-6.704h7.768h7.752l3.872,6.704l3.872,6.72l-3.872,6.719L263.756,269.424z
		 M305.766,342.199c-18.335-9.188-36.338-16.354-36.338-27.121c0-10.205,0-25.77,0-35.83c8.716,5.033,22.186,12.816,31.016,17.911
		C309.767,302.551,306.989,321.722,305.766,342.199z M313.875,273.911c-8.838-5.102-22.307-12.877-31.023-17.911
		c8.716-5.034,22.186-12.809,31.023-17.904c9.324-5.39,24.532,6.606,41.661,17.904C338.407,267.298,323.199,279.302,313.875,273.911
		z"></path>
	<path class="st0" d="M256.005,34.015c9.392,0,17-7.608,17-17.015c0-9.376-7.608-17-17-17c-9.4,0-17.015,7.623-17.015,17
		C238.989,26.407,246.605,34.015,256.005,34.015z"></path>
	<path class="st0" d="M256.005,477.985c-9.4,0-17.015,7.608-17.015,17.015c0,9.392,7.615,17,17.015,17c9.392,0,17-7.608,17-17
		C273.004,485.593,265.397,477.985,256.005,477.985z"></path>
	<path class="st0" d="M172.819,111.907c8.124-4.684,10.903-15.094,6.218-23.218c-4.699-8.14-15.094-10.926-23.232-6.233
		c-8.148,4.7-10.926,15.109-6.234,23.233C154.271,113.828,164.681,116.607,172.819,111.907z"></path>
	<path class="st0" d="M339.197,400.093c-8.14,4.684-10.942,15.094-6.234,23.218c4.7,8.146,15.094,10.941,23.234,6.233
		c8.139-4.7,10.918-15.109,6.21-23.233C357.73,398.186,347.321,395.393,339.197,400.093z"></path>
	<path class="st0" d="M89.627,256c0-9.393-7.622-17-17.014-17c-9.385,0-17,7.608-17,17c0,9.392,7.615,17,17,17
		C82.005,273,89.627,265.392,89.627,256z"></path>
	<path class="st0" d="M456.396,256c0-9.393-7.631-17-17.015-17c-9.392,0-17,7.593-17,17c0,9.392,7.608,17,17,17
		C448.765,273,456.396,265.392,456.396,256z"></path>
	<path class="st0" d="M172.819,400.093c-8.139-4.7-18.548-1.906-23.233,6.218c-4.708,8.124-1.929,18.533,6.218,23.233
		c8.138,4.708,18.534,1.913,23.232-6.233C183.737,415.187,180.944,404.777,172.819,400.093z"></path>
	<path class="st0" d="M339.197,111.907c8.124,4.7,18.533,1.921,23.21-6.218c4.708-8.124,1.929-18.533-6.21-23.233
		c-8.14-4.693-18.534-1.906-23.234,6.233C328.271,96.813,331.057,107.223,339.197,111.907z"></path>
	<path class="st0" d="M40.518,151.237c8.139,4.7,18.534,1.906,23.233-6.233c4.692-8.124,1.906-18.534-6.233-23.218
		c-8.125-4.708-18.534-1.913-23.211,6.211C29.6,136.143,32.379,146.53,40.518,151.237z"></path>
	<path class="st0" d="M471.475,360.77c-8.124-4.692-18.534-1.913-23.234,6.226c-4.684,8.132-1.906,18.534,6.234,23.241
		c8.124,4.684,18.526,1.906,23.234-6.234C482.393,375.88,479.614,365.47,471.475,360.77z"></path>
	<path class="st0" d="M40.518,360.77c-8.139,4.7-10.918,15.11-6.211,23.234c4.678,8.14,15.086,10.918,23.211,6.234
		c8.138-4.708,10.925-15.11,6.233-23.241C59.052,358.857,48.657,356.078,40.518,360.77z"></path>
	<path class="st0" d="M471.475,151.237c8.14-4.707,10.918-15.094,6.234-23.24c-4.708-8.124-15.11-10.918-23.249-6.211
		c-8.124,4.684-10.902,15.094-6.218,23.218C452.941,153.143,463.336,155.937,471.475,151.237z"></path>
</g>
</svg>
